# AST/ASF file generated using VICON BodyLanguage
# -----------------------------------------------
:version 1.10
:name VICON
:units
  mass 1.0
  length 0.45
  angle deg
:documentation
   .ast/.asf automatically generated from VICON data using
   VICON BodyBuilder and BodyLanguage model FoxedUp or BRILLIANT.MOD
:root
   order TX TY TZ RX RY RZ
   axis XYZ
   position 0 0 0  
   orientation 0 0 0 
:bonedata
  begin
     id 1 
     name lhipjoint
     direction 0.693937 -0.600361 0.397515 
     length 2.37164 
     axis 0 0 0  XYZ
  end
  begin
     id 2 
     name lfemur
     direction 0.34202 -0.939693 0  
     length 6.18497  
     axis 0 0 20  XYZ
    dof rx ry rz
    limits (-160.0 20.0)
           (-70.0 70.0)
           (-60.0 70.0)
  end
  begin
     id 3 
     name ltibia
     direction 0.34202 -0.939693 0   
     length 6.91601   
     axis 0 0 20   XYZ
    dof rx
    limits (-10.0 170.0)
  end
  begin
     id 4 
     name lfoot
     direction 0.0978718 -0.2689 0.958182   
     length 1.81453   
     axis -90 7.62852e-016 20   XYZ
    dof rx rz
    limits (-45.0 90.0)
           (-70.0 20.0)
  end
  begin
     id 5 
     name ltoes
     direction 1.53569e-011 -4.21951e-011 1   
     length 0.912052   
     axis -90 7.62852e-016 20   XYZ
    dof rx
    limits (-90.0 20.0)
  end
  begin
     id 6 
     name rhipjoint
     direction -0.643996 -0.637876 0.422354   
     length 2.23216  
     axis 0 0 0  XYZ 
  end
  begin
     id 7 
     name rfemur
     direction -0.34202 -0.939693 0   
     length 6.15404   
     axis 0 0 -20   XYZ
    dof rx ry rz
    limits (-160.0 20.0)
           (-70.0 70.0)
           (-70.0 60.0)
  end
  begin
     id 8 
     name rtibia
     direction -0.34202 -0.939693 0   
     length 6.86744   
     axis 0 0 -20   XYZ
    dof rx
    limits (-10.0 170.0)
 end
 begin
     id 9 
     name rfoot
     direction -0.118701 -0.326127 0.937844   
     length 1.9243  
     axis -90 -7.62852e-016 -20   XYZ
    dof rx rz
    limits (-45.0 90.0)
           (-20.0 70.0)
  end
  begin
     id 10 
     name rtoes
     direction -1.5356e-011 -4.2181e-011 1   
     length 0.958865   
     axis -90 -7.62852e-016 -20   XYZ
    dof rx
    limits (-90.0 20.0)
  end
  begin
     id 11 
     name lowerback
     direction 0.0310826 0.968686 -0.246334   
     length 2.00021   
     axis 0 0 0   XYZ
    dof rx ry rz
    limits (-20.0 45.0)
           (-30.0 30.0)
           (-30.0 30.0)
  end
  begin
     id 12 
     name upperback
     direction -0.0152834 0.999474 -0.0286152   
     length 2.03728   
     axis 0 0 0   XYZ
    dof rx ry rz
    limits (-20.0 45.0)
           (-30.0 30.0)
           (-30.0 30.0)
  end
  begin
     id 13 
     name thorax
     direction -0.0323701 0.996236 0.0804149   
     length 2.16   
     axis 0 0 0   XYZ
    dof rx ry rz
    limits (-20.0 45.0)
           (-30.0 30.0)
           (-30.0 30.0)
  end
  begin
     id 14 
     name lowerneck
     direction 0.0307935 0.982251 0.185027   
     length 1.43558   
     axis 0 0 0   XYZ
    dof rx ry rz
    limits (-20.0 45.0)
           (-30.0 30.0)
           (-30.0 30.0)
  end
  begin
     id 15 
     name upperneck
     direction -0.0927153 0.994775 0.0427454   
     length 1.44603   
     axis 0 0 0   XYZ
    dof rx ry rz
    limits (-20.0 45.0)
           (-30.0 30.0)
           (-30.0 30.0)
  end
  begin
     id 16
     name head
     direction -0.0341265 0.999406 -0.00472033  
     length 1.45931  
     axis 0 0 0   XYZ
    dof rx ry rz
    limits (-20.0 45.0)
           (-30.0 30.0)
           (-30.0 30.0)
  end
  begin
     id 17 
     name lclavicle
     direction 0.820755 0.555306 -0.134151  
     length 2.66075  
     axis 0 0 0   XYZ
    dof ry rz
    limits (-20.0 10.0)
           (0.0 20.0)
  end
  begin
     id 18 
     name lhumerus
     direction 1 -4.48971e-011 5.24853e-027   
     length 5.0546   
     axis -180 -30 -90   XYZ
    dof rx ry rz
    limits (-60.0 90.0)
           (-90.0 90.0)
           (-90.0 90.0)
  end
  begin
     id 19
     name lradius
     direction 1 -4.48971e-011 2.76575e-028   
     length 3.39013   
     axis -180 -30 -90   XYZ
    dof rx
    limits (-10.0 170.0)
  end
  begin
     id 20
     name lwrist
     direction 1 -4.48939e-011 -2.27826e-027   
     length 1.69507   
     axis 2.17013e-015 90 90   XYZ
    dof ry
    limits (-180.0 0.0)
 end
  begin
     id 21 
     name lhand
     direction 1 -4.49009e-011 -4.55652e-027   
     length 0.572425   
     axis 2.90745e-015 90 90   XYZ
    dof rx rz
    limits (-90.0 90.0)
           (-45.0 45.0)
  end
  begin
     id 22 
     name lfingers
     direction 1 -4.48955e-011 -9.11303e-027   
     length 0.461504   
     axis 5.81489e-015 90 90   XYZ
    dof rx
    limits (0.0 90.0)
  end
  begin
     id 23
     name lthumb
     direction 0.707107 -6.34929e-011 0.707107   
     length 0.66263   
     axis -90 45 2.85299e-015   XYZ
    dof rx rz
    limits (-45.0 45.0)
           (-45.0 45.0)
  end
  begin
     id 24 
     name rclavicle
     direction -0.754477 0.632921 -0.173712   
     length 2.73081  
     axis 0 0 0   XYZ 
    dof ry rz
    limits (-10.0 20.0)
           (-20.0 0.0)
  end
  begin
     id 25 
     name rhumerus
     direction -1 -4.48969e-011 5.1496e-027  
     length 5.0701   
     axis -180 30 90   XYZ
    dof rx ry rz
    limits (-90.0 60.0)
           (-90.0 90.0)
           (-90.0 90.0)
  end
  begin
     id 26 
     name rradius
     direction -1 -4.48967e-011 -7.15624e-028   
     length 3.14957   
     axis -180 30 90   XYZ
    dof rx
    limits (-10.0 170.0)
  end
  begin
     id 27 
     name rwrist
     direction -1 -4.48938e-011 -2.27826e-027   
     length 1.57479   
     axis 2.17013e-015 -90 -90   XYZ
    dof ry
    limits (-180.0 0.0)
  end
  begin
     id 28
     name rhand
     direction -1 -4.49008e-011 -4.55652e-027   
     length 0.718191   
     axis 2.90745e-015 -90 -90   XYZ
    dof rx rz
    limits (-90.0 90.0)
           (-45.0 45.0)
  end
  begin
     id 29
     name rfingers
     direction -1 -4.48953e-011 -9.11303e-027   
     length 0.579024   
     axis 5.81489e-015 -90 -90   XYZ
    dof rx
    limits (0.0 90.0)
  end
  begin
     id 30
     name rthumb
     direction -0.707107 -6.34937e-011 0.707107   
     length 0.831366   
     axis -90 -45 -2.85299e-015   XYZ
    dof rx rz
    limits (-45.0 45.0)
           (-45.0 45.0)
  end
:hierarchy
  begin
    root lhipjoint rhipjoint lowerback
    lhipjoint lfemur
    lfemur ltibia
    ltibia lfoot
    lfoot ltoes
    rhipjoint rfemur
    rfemur rtibia
    rtibia rfoot
    rfoot rtoes
    lowerback upperback
    upperback thorax
    thorax lowerneck lclavicle rclavicle
    lowerneck upperneck
    upperneck head
    lclavicle lhumerus
    lhumerus lradius
    lradius lwrist
    lwrist lhand lthumb
    lhand lfingers
    rclavicle rhumerus
    rhumerus rradius
    rradius rwrist
    rwrist rhand rthumb
    rhand rfingers
  end

#!OML:ASF H:\Male1\Project 1\Capture day 1\Session 1\Male1.ASF
:FULLY-SPECIFIED
:DEGREES
126
root 14.1437 14.6557 1.31611 31.1938 -92.5147 -26.7396
lowerback 6.43944 0.0423587 0.698114
upperback 2.57192 0.0530708 1.5694
thorax -0.961775 -0.00555876 1.2176
lowerneck -15.156 3.137 7.54913
upperneck 13.7419 3.47763 -5.51624
head 6.92048 1.58083 -2.66283
rclavicle 3.57812e-015 -4.77083e-015
rhumerus -37.3965 21.4354 -77.2659
rradius 59.7222
rwrist -20.277
rhand -16.9342 6.57618
rfingers 7.12502
rthumb 9.29887 -23.1987
lclavicle 3.57812e-015 -4.77083e-015
lhumerus -35.7178 -12.282 81.433
lradius 47.4309
lwrist 9.0439
lhand -17.715 12.1422
lfingers 7.12502
lthumb 8.54535 41.9493
rfemur -36.5766 3.41813 23.3593
rtibia 47.2857
rfoot -23.4072 -19.4262
rtoes -13.0286
lfemur 9.93549 -9.96008 -28.5296
ltibia 27.2977
lfoot -31.602 23.5117
ltoes -13.7152
127
root 14.0075 14.6702 1.29103 21.3416 -92.9808 -16.8357
lowerback 6.5011 -0.0915446 1.01662
upperback 2.50188 -0.102819 1.96466
thorax -1.06485 -0.0858698 1.45726
lowerneck -15.1281 3.5291 8.03152
upperneck 14.0442 4.00984 -6.08286
head 7.07267 1.81218 -2.87194
rclavicle -7.15625e-015 1.59028e-015
rhumerus -37.6258 22.0202 -75.4884
rradius 61.1373
rwrist -19.8635
rhand -15.6073 6.32412
rfingers 7.12502
rthumb 10.579 -23.3896
lclavicle -7.15625e-015 1.59028e-015
lhumerus -37.3806 -11.9066 81.5855
lradius 48.0414
lwrist 9.04065
lhand -19.7756 10.5323
lfingers 7.12502
lthumb 6.55644 40.4109
rfemur -35.9802 3.30782 23.8847
rtibia 47.2284
rfoot -23.8936 -18.8568
rtoes -14.0255
lfemur 10.0905 -7.89163 -27.805
ltibia 28.4892
lfoot -31.0594 23.0568
ltoes -12.3371
128
root 13.8787 14.6866 1.26907 15.1124 -93.6576 -10.4315
lowerback 6.36576 -0.185366 1.24377
upperback 2.4456 -0.216092 2.34066
thorax -1.04442 -0.145356 1.7248
lowerneck -15.0338 3.8473 8.38
upperneck 14.1721 4.45601 -6.54239
head 7.15053 2.00519 -3.03262
rclavicle -8.54774e-015 -3.57812e-014
rhumerus -37.7638 22.3365 -73.4799
rradius 62.5222
rwrist -19.5466
rhand -14.4457 6.40917
rfingers 7.12502
rthumb 11.6994 -23.2441
lclavicle -8.54774e-015 -3.57812e-014
lhumerus -39.1422 -11.6759 81.8597
lradius 48.694
lwrist 9.58172
lhand -20.3895 10.4649
lfingers 7.12502
lthumb 5.96374 40.361
rfemur -35.5407 3.27502 24.3005
rtibia 47.091
rfoot -24.1195 -18.2437
rtoes -15.1007
lfemur 9.97044 -5.4698 -27.0808
ltibia 30.4516
lfoot -29.8054 23.1696
ltoes -12.6325
129
root 13.7611 14.708 1.24948 13.3768 -94.4286 -8.53053
lowerback 6.27521 -0.29014 1.25876
upperback 2.35103 -0.354021 2.65484
thorax -1.0863 -0.216985 2.05014
lowerneck -15.0602 4.31905 8.93941
upperneck 14.5372 5.09926 -7.19228
head 7.35806 2.28399 -3.26856
rclavicle -9.34288e-015 8.74653e-015
rhumerus -37.9929 22.482 -71.4025
rradius 63.8736
rwrist -19.3861
rhand -13.8111 6.54848
rfingers 7.12502
rthumb 12.3112 -23.0691
lclavicle -9.34288e-015 8.74653e-015
lhumerus -41.0012 -11.4723 82.2304
lradius 49.2927
lwrist 10.5306
lhand -19.9725 11.4907
lfingers 7.12502
lthumb 6.36633 41.3751
rfemur -35.1136 3.38574 24.4528
rtibia 46.8759
rfoot -24.1372 -17.8154
rtoes -16.9028
lfemur 9.87509 -2.90919 -26.478
ltibia 33.2704
lfoot -27.7437 22.4262
ltoes -10.1123
130
root 13.6544 14.7229 1.23068 12.6917 -95.113 -7.7243
lowerback 6.20652 -0.425367 1.29487
upperback 2.27496 -0.532044 2.89733
thorax -1.1194 -0.308186 2.29273
lowerneck -14.747 4.68939 9.4695
upperneck 14.5118 5.59803 -7.67491
head 7.36886 2.51453 -3.4615
rclavicle 9.74045e-015 -3.73715e-014
rhumerus -38.2675 22.3855 -69.3188
rradius 65.2335
rwrist -19.5025
rhand -13.8322 6.18579
rfingers 7.12502
rthumb 12.2909 -23.433
lclavicle 9.74045e-015 -3.73715e-014
lhumerus -42.7394 -11.2843 82.4947
lradius 49.7682
lwrist 11.0961
lhand -20.3715 11.2451
lfingers 7.12502
lthumb 5.98112 41.1407
rfemur -34.6572 3.52405 24.5506
rtibia 46.6126
rfoot -24.02 -17.5122
rtoes -18.555
lfemur 9.92811 -0.371676 -25.7982
ltibia 36.8798
lfoot -25.139 20.2722
ltoes -9.52713
131
root 13.5548 14.7495 1.21035 13.1272 -95.4899 -8.00694
lowerback 6.14581 -0.645416 1.30492
upperback 2.22229 -0.825694 3.11667
thorax -1.1275 -0.457306 2.53412
lowerneck -14.328 5.02429 10.0883
upperneck 14.1991 6.05733 -8.31136
head 7.27705 2.72187 -3.72454
rclavicle -9.14409e-015 -5.56597e-015
rhumerus -38.504 21.9124 -67.15
rradius 66.5266
rwrist -20.0939
rhand -14.2226 5.93291
rfingers 7.12502
rthumb 11.9145 -23.7081
lclavicle -9.14409e-015 -5.56597e-015
lhumerus -44.2745 -11.0042 82.6363
lradius 50.172
lwrist 10.9207
lhand -20.7682 10.351
lfingers 7.12502
lthumb 5.5982 40.257
rfemur -34.151 3.59257 24.5738
rtibia 46.225
rfoot -23.8266 -17.4586
rtoes -19.6007
lfemur 9.49773 1.59285 -25.0769
ltibia 41.1934
lfoot -20.4543 18.22
ltoes -14.7716
132
root 13.459 14.7824 1.19401 11.7916 -95.7857 -6.42054
lowerback 6.04344 -0.823439 1.57341
upperback 2.13012 -1.0491 3.34697
thorax -1.15768 -0.570889 2.63615
lowerneck -14.0521 5.26095 10.4966
upperneck 14.0332 6.38553 -8.73306
head 7.23599 2.87126 -3.89633
rclavicle 1.05356e-014 1.27222e-014
rhumerus -38.9758 21.0612 -64.9895
rradius 67.723
rwrist -21.2448
rhand -14.8861 6.01563
rfingers 7.12502
rthumb 11.2746 -23.6614
lclavicle 1.05356e-014 1.27222e-014
lhumerus -45.7676 -10.7069 82.7446
lradius 50.5529
lwrist 10.3608
lhand -19.4209 10.8239
lfingers 7.12502
lthumb 6.89882 40.6915
rfemur -33.6883 3.73195 24.7808
rtibia 45.7282
rfoot -23.5321 -17.6304
rtoes -20.5689
lfemur 8.74724 2.99958 -24.22
ltibia 45.9711
lfoot -15.3655 14.9802
ltoes -19.483
133
root 13.3664 14.813 1.18196 9.38736 -95.9569 -3.76751
lowerback 5.98651 -0.960155 2.10717
upperback 2.0304 -1.20166 3.5291
thorax -1.2297 -0.648904 2.53546
lowerneck -13.8784 5.41073 10.8096
upperneck 13.8381 6.56895 -8.9434
head 7.17989 2.96306 -3.99722
rclavicle -2.76311e-014 4.29375e-014
rhumerus -39.8354 19.8612 -62.9405
rradius 68.9308
rwrist -22.7054
rhand -15.8721 6.06897
rfingers 7.12502
rthumb 10.3236 -23.6576
lclavicle -2.76311e-014 4.29375e-014
lhumerus -47.1618 -10.4816 82.7554
lradius 50.9223
lwrist 9.94968
lhand -17.928 11.4717
lfingers 7.12502
lthumb 8.33979 41.287
rfemur -33.1563 3.92498 25.1053
rtibia 45.0999
rfoot -23.3967 -17.8628
rtoes -21.0321
lfemur 7.93168 3.93494 -23.2815
ltibia 50.998
lfoot -10.3388 10.9358
ltoes -22.3969
134
root 13.2749 14.8434 1.17059 8.23592 -96.0101 -2.452
lowerback 6.02402 -1.14833 2.4818
upperback 2.00472 -1.43264 3.71832
thorax -1.27393 -0.767722 2.53871
lowerneck -13.7493 5.63604 11.0831
upperneck 13.4191 6.8651 -9.24202
head 7.07438 3.09948 -4.10542
rclavicle -1.03368e-014 2.70347e-014
rhumerus -40.6718 18.6666 -60.8391
rradius 70.0512
rwrist -24.4617
rhand -16.9628 6.07732
rfingers 7.12502
rthumb 9.27125 -23.6988
lclavicle -1.03368e-014 2.70347e-014
lhumerus -48.3814 -10.0468 82.7161
lradius 51.3002
lwrist 9.9177
lhand -17.1538 11.6205
lfingers 7.12502
lthumb 9.08694 41.4047
rfemur -32.4937 4.13817 25.2664
rtibia 44.3689
rfoot -23.5035 -18.0154
rtoes -20.5717
lfemur 7.10518 4.57263 -22.4788
ltibia 56.0535
lfoot -5.55428 6.94405
ltoes -24.0166
135
root 13.1865 14.8762 1.1557 5.08889 -96.0881 0.742359
lowerback 6.17588 -1.3073 2.95902
upperback 2.08944 -1.62328 3.97147
thorax -1.27069 -0.869324 2.55004
lowerneck -13.7095 5.86319 11.3094
upperneck 12.9935 7.16771 -9.56987
head 6.98455 3.23218 -4.21336
rclavicle 5.1684e-015 -6.36111e-015
rhumerus -41.4266 17.4061 -58.7088
rradius 70.9324
rwrist -26.2443
rhand -17.9724 5.94089
rfingers 7.12502
rthumb 8.29695 -23.8762
lclavicle 5.1684e-015 -6.36111e-015
lhumerus -49.3685 -9.60555 82.7029
lradius 51.5427
lwrist 10.267
lhand -16.5523 11.7447
lfingers 7.12502
lthumb 9.66735 41.5029
rfemur -31.6661 4.40284 25.6746
rtibia 43.579
rfoot -23.509 -18.1716
rtoes -20.175
lfemur 6.32926 5.2802 -21.3104
ltibia 60.9823
lfoot -1.03839 3.49194
ltoes -24.1133
136
root 13.101 14.9092 1.13692 0.618558 -96.2315 5.19083
lowerback 6.31366 -1.37905 3.58226
upperback 2.25326 -1.69666 4.19267
thorax -1.1859 -0.912354 2.43713
lowerneck -13.624 5.97281 11.5031
upperneck 12.5454 7.30067 -9.79806
head 6.85723 3.29159 -4.30367
rclavicle -1.98785e-015 0
rhumerus -42.2472 15.8138 -56.6675
rradius 71.4963
rwrist -27.6898
rhand -18.5946 5.93053
rfingers 7.12502
rthumb 7.69644 -23.9094
lclavicle -1.98785e-015 0
lhumerus -50.1735 -9.26682 82.69
lradius 51.6733
lwrist 10.7756
lhand -16.6367 11.6696
lfingers 7.12502
lthumb 9.58586 41.4315
rfemur -30.7623 4.75403 26.2722
rtibia 42.7989
rfoot -23.3271 -18.4187
rtoes -20.2754
lfemur 5.54681 6.03268 -19.8376
ltibia 65.6982
lfoot 3.71629 0.98837
ltoes -19.3609
137
root 13.0126 14.9381 1.11651 -0.356814 -96.3836 6.17496
lowerback 6.35902 -1.43261 3.82697
upperback 2.36371 -1.76494 4.30189
thorax -1.09878 -0.949395 2.41797
lowerneck -13.4393 6.05591 11.6725
upperneck 12.1898 7.40966 -9.98462
head 6.73817 3.34387 -4.38159
rclavicle -4.13472e-014 -2.8625e-014
rhumerus -43.0306 14.1819 -54.7264
rradius 71.6159
rwrist -28.8338
rhand -19.0068 6.28219
rfingers 7.12502
rthumb 7.2986 -23.5719
lclavicle -4.13472e-014 -2.8625e-014
lhumerus -50.9718 -8.77167 82.6511
lradius 51.8066
lwrist 11.4407
lhand -17.2579 11.7867
lfingers 7.12502
lthumb 8.98648 41.5753
rfemur -29.9689 5.08575 26.4734
rtibia 42.0974
rfoot -23.0966 -18.6092
rtoes -20.3071
lfemur 4.65852 6.64543 -18.8183
ltibia 70.0831
lfoot 7.73057 0.0824178
ltoes -15.4501
138
root 12.9274 14.9597 1.09615 0.75633 -96.5079 4.99116
lowerback 6.55814 -1.52563 3.78858
upperback 2.42228 -1.88503 4.3475
thorax -1.14438 -1.01193 2.5012
lowerneck -13.3019 6.1993 11.8926
upperneck 12.0829 7.61511 -10.2652
head 6.72462 3.43514 -4.48839
rclavicle -4.77083e-015 -1.59028e-014
rhumerus -43.7418 12.8265 -52.9611
rradius 71.4744
rwrist -29.6642
rhand -19.8687 6.10024
rfingers 7.12502
rthumb 6.46653 -23.781
lclavicle -4.77083e-015 -1.59028e-014
lhumerus -51.7562 -8.07756 82.5442
lradius 51.8725
lwrist 12.3255
lhand -17.856 12.3797
lfingers 7.12502
lthumb 8.40927 42.1923
rfemur -29.1923 5.31015 26.4322
rtibia 41.5138
rfoot -22.9169 -18.6909
rtoes -20.2615
lfemur 3.78325 7.09694 -18.168
ltibia 74.0961
lfoot 10.8755 0.435802
ltoes -14.5561
139
root 12.8377 14.9773 1.07832 1.19396 -96.7289 4.44746
lowerback 6.68873 -1.58484 3.869
upperback 2.50951 -1.96024 4.37147
thorax -1.12697 -1.05131 2.48962
lowerneck -13.1873 6.36291 12.1964
upperneck 12.056 7.84978 -10.6423
head 6.75284 3.53594 -4.63758
rclavicle 5.52621e-014 -3.49861e-014
rhumerus -44.4181 11.6484 -51.4177
rradius 71.1785
rwrist -30.1055
rhand -20.8842 5.29103
rfingers 7.12502
rthumb 5.48614 -24.618
lclavicle 5.52621e-014 -3.49861e-014
lhumerus -52.4684 -7.3323 82.4294
lradius 51.8525
lwrist 13.2695
lhand -18.4915 12.7016
lfingers 7.12502
lthumb 7.79598 42.5379
rfemur -28.4179 5.56904 26.4694
rtibia 41.0585
rfoot -22.9922 -18.7165
rtoes -19.9277
lfemur 2.90145 7.50051 -17.5722
ltibia 77.7028
lfoot 13.1195 1.46789
ltoes -13.5321
140
root 12.7404 14.9944 1.05992 0.474924 -97.024 5.08638
lowerback 6.63737 -1.5895 4.10659
upperback 2.61016 -1.96832 4.42429
thorax -0.999266 -1.0564 2.40842
lowerneck -13.1959 6.53883 12.3877
upperneck 12.254 8.10435 -10.8882
head 6.86771 3.64652 -4.7213
rclavicle 2.22639e-014 -3.18055e-014
rhumerus -44.9658 10.5597 -49.9632
rradius 70.5287
rwrist -30.388
rhand -21.3947 4.75122
rfingers 7.12502
rthumb 4.99328 -25.1699
lclavicle 2.22639e-014 -3.18055e-014
lhumerus -53.0515 -6.58502 82.4002
lradius 51.6598
lwrist 14.2724
lhand -19.1356 12.8478
lfingers 7.12502
lthumb 7.17426 42.7062
rfemur -27.7034 5.93884 26.671
rtibia 40.6766
rfoot -23.1541 -18.9682
rtoes -20.0872
lfemur 1.91652 7.89 -16.9149
ltibia 80.9406
lfoot 13.7318 2.52422
ltoes -11.6685
